Exact Audio Copy V0.99 prebeta 1 from 25. May 2007

EAC extraction logfile from 11. February 2008, 21:42

The Tuss / Rushup Edge

Used drive  : PLEXTOR DVDR   PX-708A   Adapter: 0  ID: 0

Read mode               : Secure
Utilize accurate stream : Yes
Defeat audio cache      : Yes
Make use of C2 pointers : No

Read offset correction                      : 30
Overread into Lead-In and Lead-Out          : Yes
Fill up missing offset samples with silence : Yes
Delete leading and trailing silent blocks   : No
Used interface                              : Installed external ASPI interface
Gap handling                                : Appended to previous track

Used output format              : User Defined Encoder
Selected bitrate                : 1024 kBit/s
Quality                         : High
Add ID3 tag                     : No
Command line compressor         : C:\Program Files\FLAC\flac.exe
Additional command line options : --best -V -T "ARTIST=%a" -T "TITLE=%t" -T "ALBUM=%g" -T "DATE=%y" -T "TRACKNUMBER=%n" -T "GENRE=%m" -T "COMMENT=%e" %s -o %d


TOC of the extracted CD

     Track |   Start  |  Length  | Start sector | End sector 
    ---------------------------------------------------------
        1  |  0:00.00 |  6:22.45 |         0    |    28694   
        2  |  6:22.45 |  6:36.14 |     28695    |    58408   
        3  | 12:58.59 |  3:08.68 |     58409    |    72576   
        4  | 16:07.52 |  4:41.07 |     72577    |    93658   
        5  | 20:48.59 |  6:39.15 |     93659    |   123598   
        6  | 27:27.74 |  5:22.01 |    123599    |   147749   


Track  1

     Filename 01 - Synthacon 9.wav

     Pre-gap length  0:00:02.00

     Peak level 96.7 %
     Track quality 100.0 %
     Test CRC A19ECE0D
     Copy CRC A19ECE0D
     Accurately ripped (confidence 1)  [C1183399]
     Copy OK

Track  2

     Filename 02 - Last Rushup 10.wav

     Pre-gap length  0:00:03.19

     Peak level 96.4 %
     Track quality 100.0 %
     Test CRC 167115C7
     Copy CRC 167115C7
     Accurately ripped (confidence 1)  [BDDC7904]
     Copy OK

Track  3

     Filename 03 - Shiz Ko E.wav

     Pre-gap length  0:00:04.33

     Peak level 95.6 %
     Track quality 99.9 %
     Test CRC F70B5B1B
     Copy CRC F70B5B1B
     Accurately ripped (confidence 1)  [D8F89117]
     Copy OK

Track  4

     Filename 04 - Rushup I Bank 12.wav

     Pre-gap length  0:00:03.49

     Peak level 96.4 %
     Track quality 100.0 %
     Test CRC 601D3AD1
     Copy CRC 601D3AD1
     Accurately ripped (confidence 1)  [05346A3F]
     Copy OK

Track  5

     Filename 05 - Death Fuck.wav

     Pre-gap length  0:00:03.50

     Peak level 95.8 %
     Track quality 100.0 %
     Test CRC 661D54F4
     Copy CRC 661D54F4
     Accurately ripped (confidence 1)  [47C2035F]
     Copy OK

Track  6

     Filename 06 - Goodbye Rute.wav

     Pre-gap length  0:00:08.23

     Peak level 95.2 %
     Track quality 100.0 %
     Test CRC 3476612D
     Copy CRC 3476612D
     Accurately ripped (confidence 1)  [1D957545]
     Copy OK

No errors occurred

End of status report
